# xmcd
#
# Track frame offsets: 
#        150
#        11857
#        23946
#        37058
#        49117
#        59899
#        74059
#        82294
#        97323
#        111045
#        125042
#        139033
#        153355
#        164931
#        174823
#        186307
#        199589
#        212027
#        223810
#        236428
#        250859
#        261318
#        272836
#        284224
#        298973
#
# Disc length: 4167 seconds
#
# Revision: 1
# Processed by: cddbd v1.5.2PL0 Copyright (c) Steve Scherf et al.
# Submitted via: ExactAudioCopyFreeDBPlugin 1.0
#
DISCID=aa104519
DTITLE=Various Artist - New San Antonio Rose
DYEAR=1900
DGENRE=Country
TTITLE0=Bob Wills - New San Antonio Rose
TTITLE1=Tex Ritter - The Old Chrisholm Trail
TTITLE2=The Sons Of The Pioneers - Cool Water
TTITLE3=Gene Autry - Cowboy Blues
TTITLE4=Roy Rogers - My Chickashay Gal
TTITLE5=Patsy Montana - Lone Star
TTITLE6=Tex Ritter - Love You Big As Texas
TTITLE7=Jimmie Rodgers - When The Cactus Is In Bloom
TTITLE8=Gene Autry - Mexicali Rose
TTITLE9=Roy Rogers - Rhythm Of The Range
TTITLE10=Carson Robison and His Pioneers - Ramblin' Cowboy
TTITLE11=Merle Travis - Ridin Down to Santa Fe
TTITLE12=Girls Of The Golden West - My Love Is A Rider(Bucking Bronco)
TTITLE13=Johnny Bond - The Texas Cannonball
TTITLE14=Bob Wills - New Spanish Two-Step
TTITLE15=Patsy Montana and The Prairie Ramblers - Shine On, Rocky Mounta
TTITLE15=in Moonlight
TTITLE16=Tex Ritter - The Wayward Wind
TTITLE17=Roy Rogers - San Fernando Valley
TTITLE18=Gene Autry - That Silver Haired Daddy Of Mine
TTITLE19=Ken Maynard - Lone Star Trail
TTITLE20=Johnny Bond - The Last Round-Up
TTITLE21=The Sons Of The Pioneers - Cowboy Camp Meetin'
TTITLE22=Rex Allen - When The Campfire Is Low On The Prairie
TTITLE23=Tex Ritter - Take Me Back To My Boots And Saddle
TTITLE24=Roy Rogers and Dale Evans - Happy Trails
EXTD=
EXTT0=
EXTT1=
EXTT2=
EXTT3=
EXTT4=
EXTT5=
EXTT6=
EXTT7=
EXTT8=
EXTT9=
EXTT10=
EXTT11=
EXTT12=
EXTT13=
EXTT14=
EXTT15=
EXTT16=
EXTT17=
EXTT18=
EXTT19=
EXTT20=
EXTT21=
EXTT22=
EXTT23=
EXTT24=
PLAYORDER=
